<?xml version="1.0" standalone="no"?>
<!DOCTYPE svg PUBLIC "-//W3C//DTD SVG 20010904//EN"
 "http://www.w3.org/TR/2001/REC-SVG-20010904/DTD/svg10.dtd">
<svg version="1.0" xmlns="http://www.w3.org/2000/svg"
 width="993.000000pt" height="242.000000pt" viewBox="0 0 993.000000 242.000000"
 preserveAspectRatio="xMidYMid meet">

<g transform="translate(0.000000,242.000000) scale(0.100000,-0.100000)"
fill="#ff3e00" stroke="none">
<path d="M948 2288 l-308 -121 -2 -409 -3 -409 -312 -122 -313 -122 0 -425 0
-425 315 -122 315 -123 319 125 318 125 319 -125 319 -125 315 123 315 124 0
423 0 424 -175 68 c-96 38 -239 94 -317 125 l-143 56 0 407 c0 317 -3 409 -12
413 -363 143 -611 237 -625 236 -10 0 -156 -55 -325 -121z m77 -328 l200 -79
3 -355 c1 -196 -1 -356 -5 -356 -4 0 -119 43 -255 97 l-248 96 0 358 0 359 53
-21 c28 -12 142 -56 252 -99z m815 -237 l0 -358 -253 -98 c-138 -54 -255 -97
-259 -97 -5 0 -8 157 -8 350 0 322 1 351 18 361 17 10 480 196 495 198 4 1 7
-160 7 -356z m-918 -529 c123 -48 226 -89 230 -93 7 -6 -516 -214 -537 -214
-17 0 -465 176 -465 183 0 8 509 208 532 209 9 1 117 -38 240 -85z m1223 -16
c145 -57 265 -105 265 -108 0 -3 -106 -46 -235 -96 l-235 -91 -270 105 c-149
58 -267 109 -263 113 12 11 435 177 455 178 10 1 137 -45 283 -101z m-917
-510 l-3 -342 -260 -102 c-143 -57 -266 -103 -272 -103 -10 -1 -13 73 -13 338
l0 338 268 106 c147 58 270 106 275 106 4 1 6 -153 5 -341z m383 232 l254 -99
3 -340 c1 -188 -1 -341 -5 -341 -5 0 -127 47 -273 104 l-265 104 -3 342 c-2
327 -2 341 16 336 10 -4 133 -51 273 -106z"/>
<path d="M3890 1356 l0 -725 -29 -21 c-51 -36 -133 -68 -203 -80 -135 -24
-243 26 -285 130 -22 53 -22 67 -23 388 l0 332 205 0 205 0 0 90 0 90 -205 0
-205 0 0 229 0 230 -122 -69 -123 -68 -3 -161 -2 -161 -110 0 -110 0 0 -90 0
-90 109 0 110 0 3 -362 c3 -351 4 -365 26 -421 67 -167 211 -247 443 -247 109
0 225 22 288 55 31 15 31 15 31 -10 l0 -25 125 0 125 0 0 424 0 424 62 58
c125 115 275 155 418 112 53 -16 95 -52 121 -105 l24 -48 3 -432 3 -433 125 0
126 0 -4 443 c-4 413 -5 446 -25 503 -58 175 -175 253 -393 262 -171 7 -270
-23 -397 -120 l-63 -47 0 334 0 335 -125 0 -125 0 0 -724z"/>
<path d="M6760 1990 l0 -90 240 0 240 0 0 -547 c0 -302 5 -588 10 -636 16
-156 83 -260 204 -318 87 -41 153 -52 291 -47 99 4 133 10 195 32 94 35 110
35 190 1 56 -25 81 -29 187 -33 89 -3 141 0 195 12 75 17 177 60 229 96 l28
21 -45 74 c-25 41 -48 75 -51 75 -3 0 -18 -9 -33 -20 -50 -36 -133 -68 -202
-80 -124 -22 -232 22 -280 112 -22 42 -23 51 -26 391 l-3 347 206 0 205 0 0
90 0 90 -205 0 -205 0 0 229 0 230 -122 -69 -123 -68 -3 -161 -2 -161 -110 0
-110 0 0 -90 0 -90 109 0 110 0 3 -362 c3 -313 6 -369 21 -407 9 -24 17 -45
17 -47 0 -12 -127 -38 -186 -37 -124 0 -195 51 -228 162 -14 48 -16 140 -16
723 l0 668 -365 0 -365 0 0 -90z"/>
<path d="M5685 1566 c-102 -26 -186 -75 -261 -153 l-42 -44 -11 81 c-7 45 -15
88 -18 96 -4 11 -31 14 -125 14 l-120 0 6 -24 c19 -75 26 -261 26 -688 l0
-478 120 0 120 0 0 393 0 392 53 65 c105 129 206 183 342 183 88 0 148 -18
202 -59 l33 -25 -26 -52 c-49 -96 -65 -158 -71 -268 -14 -264 99 -465 322
-574 103 -51 173 -66 326 -72 156 -6 258 10 374 58 79 33 185 96 185 110 0 13
-83 139 -92 139 -4 0 -28 -14 -54 -32 -108 -73 -276 -115 -415 -105 -217 17
-360 142 -394 345 l-7 42 496 0 495 0 7 36 c8 46 -3 160 -23 227 -59 199 -219
346 -429 393 -155 34 -358 7 -485 -64 l-46 -25 -59 36 c-32 20 -86 43 -119 52
-71 18 -239 19 -310 1z m1016 -188 c32 -14 76 -45 99 -68 44 -44 94 -140 106
-202 l6 -38 -372 0 -373 0 6 35 c20 122 126 248 240 285 88 29 211 24 288 -12z"/>
<path d="M9155 1565 c-226 -49 -407 -224 -459 -445 -20 -83 -20 -237 -1 -319
47 -196 194 -346 413 -419 71 -24 91 -26 252 -26 139 -1 188 3 240 17 70 19
229 94 270 126 l24 19 -47 71 c-26 39 -49 71 -52 71 -2 0 -29 -16 -59 -35
-142 -91 -326 -125 -489 -90 -156 33 -262 134 -303 290 -26 94 -78 85 480 85
l493 0 7 41 c9 54 -10 198 -35 264 -64 171 -209 298 -395 345 -91 23 -245 26
-339 5z m317 -189 c100 -47 176 -150 203 -273 l7 -33 -375 0 -375 0 13 50 c38
145 134 247 262 280 21 5 76 8 123 6 67 -3 97 -9 142 -30z"/>
</g>
</svg>
